<svg xmlns="http://www.w3.org/2000/svg" version="1.1" xmlns:xlink="http://www.w3.org/1999/xlink" xmlns:svgjs="http://svgjs.dev/svgjs" viewBox="0 0 600 600"><path d="M45.80838394165039,243.41317749023438C47.15568923950195,182.63473637898764,1.3473046620686837,119.16167942682901,25.149700164794922,80.83832550048828C48.952095667521164,42.514971574147545,122.9041919708252,14.371257464090982,188.6227569580078,13.473053932189941C254.34132194519043,12.5748504002889,357.0359420776367,42.96407334009806,419.4610900878906,75.44910430908203C481.88623809814453,107.93413527806601,542.6646677652994,147.60479863484701,563.1736450195312,208.38323974609375C583.6826222737631,269.1616808573405,541.0179443359375,378.44310506184894,542.5149536132812,440.1197509765625C544.011962890625,501.79639689127606,606.8862355550131,559.8802388509115,572.1557006835938,578.443115234375C537.4251658121744,597.0059916178385,412.8742612202962,551.1976114908854,334.1317443847656,551.4970092773438C255.38922754923504,551.7964070638021,152.54491233825684,597.9041748046875,99.70059967041016,580.239501953125C46.85628700256348,562.5748291015625,26.047904332478844,501.6466929117839,17.065868377685547,445.50897216796875C8.083832422892252,389.3712514241536,44.46107864379883,304.19161860148114,45.80838394165039,243.41317749023438C47.15568923950195,182.63473637898764,1.3473046620686837,119.16167942682901,25.149700164794922,80.83832550048828" fill="hsl(340, 45%, 50%)"></path></svg>